<svg viewBox="0 0 256 256" xmlns="http://www.w3.org/2000/svg"><g><path d="M226.87 219.748h-73.68a2.69 2.69 0 0 1-2.689-2.69v-28.566h79.059v28.566a2.69 2.69 0 0 1-2.69 2.69z" fill="#ec6630"/><path d="M170.643 195.707v18.525h-3.018v-8.345h-8.018v8.345h-3.066v-18.525h3.066v8.119h8.018v-8.12h3.018zM188.388 195.707v2.06h-5.528v16.465h-3.041v-16.464h-5.53v-2.061h14.1zM206.035 195.707h3.067v18.525h-3.067v-12.745l-4.148 10.305h-2.664l-4.173-10.305v12.745h-3.067v-18.525h3.067l5.504 12.67 5.481-12.67zM216.818 195.707v16.238h8.522v2.287h-11.588v-18.525h3.066z" fill="#fff"/></g><path fill="#4f5565" d="M237.818 85.647h-87.307L130.097 75.44H18v103.165h219.818z"/><g fill="#f1f3f7"><path d="M18 178.605v1.64a8.168 8.168 0 0 0 8.202 8.203h203.596a8.168 8.168 0 0 0 8.202-8.202v-1.641H18zM150.51 85.647h87.308V44.454a8.168 8.168 0 0 0-8.202-8.202H97.652A13.069 13.069 0 0 0 84.53 49.375H28.025C22.557 49.375 18 53.932 18 59.4v15.858h112.279l20.232 10.39z"/></g><circle cx="127.909" cy="128.663" r="59.966" fill="#dededf"/><circle cx="127.909" cy="128.663" r="50.125" fill="#fcfcfd"/><path d="M215.399 75.44H176.94c-1.458 0-2.733-1.276-2.733-2.734V47.188c0-1.459 1.276-2.735 2.733-2.735h38.459c1.458 0 2.734 1.276 2.734 2.735v25.518c0 1.458-1.276 2.734-2.734 2.734z" fill="#377ef0"/><path d="M68.489 39.168h-28.07c-2.552 0-4.556 1.823-4.556 3.828v6.379h37.365v-6.379c0-2.005-2.187-3.828-4.739-3.828z" fill="#4f5565"/><g fill="#377ef0"><path d="M111.928 128.708c0 8.862 7.21 16.071 16.072 16.071 8.862 0 16.071-7.21 16.071-16.071 0-8.862-7.21-16.072-16.07-16.072-8.863 0-16.073 7.21-16.073 16.072z"/><path d="M165.007 107.493a.705.705 0 0 0-.006-.708 43.27 43.27 0 0 0-15.406-15.273A42.973 42.973 0 0 0 128 85.704c-13.148 0-25.401 5.9-33.618 16.188a.704.704 0 0 0-.06.793l12.106 20.968a.705.705 0 0 0 1.294-.177 20.94 20.94 0 0 1 22.098-15.629l.06.003h34.515a.704.704 0 0 0 .612-.357z"/><path d="M134.355 149.132a.704.704 0 0 0-.746-.247c-1.821.507-3.708.763-5.609.763-8.076 0-15.52-4.737-18.964-12.067a.789.789 0 0 0-.028-.053l-17.27-29.911a.704.704 0 0 0-.61-.353h-.004a.705.705 0 0 0-.61.36 43.027 43.027 0 0 0-5.518 21.084 42.98 42.98 0 0 0 10.529 28.19c6.722 7.737 15.976 12.829 26.06 14.338a.706.706 0 0 0 .715-.345l12.108-20.975a.706.706 0 0 0-.053-.784z"/><path d="M167.388 112.554h-24.244a.705.705 0 0 0-.494 1.208c4.057 3.977 6.29 9.285 6.29 14.946a20.79 20.79 0 0 1-3.74 11.928.713.713 0 0 0-.031.05l-17.3 29.963a.706.706 0 0 0 .611 1.057h.008c11.384-.127 22.067-4.656 30.08-12.752 8.02-8.103 12.437-18.845 12.437-30.246 0-5.42-.996-10.703-2.96-15.707a.705.705 0 0 0-.657-.447z"/></g></svg>