<?xml version="1.0" encoding="utf-8"?>
<svg viewBox="0 0 512 360" xmlns="http://www.w3.org/2000/svg">
  <path d="M 6 331.492 L 6 335.243 C 5.957 345.619 14.327 354.043 24.641 354 L 487.358 354 C 497.673 354.043 506.043 345.62 506 335.245 L 506 331.495 L 6 331.495 L 6 331.492 Z M 307.159 118.943 L 506.003 119.035 L 505.586 24.755 C 505.629 14.377 497.258 5.957 486.945 6 L 187.027 6 C 170.527 5.935 157.137 19.406 157.204 36.006 L 28.784 36.006 C 16.356 36.006 6 46.425 6 58.93 L 6 95.19 L 261.18 95.19 L 307.161 118.947 L 307.159 118.943 Z" fill="#f1f3f7" style=""/>
  <path d="M 506 118.351 L 307.411 118.351 L 260.976 95 L 6 95 L 6 331 L 506 331 Z" fill="#4f5565"/>
  <circle cx="256" cy="216" r="136" fill="#dededf"/>
  <circle cx="256" cy="216" r="114" fill="#fcfcfd"/>
  <path d="M 219.374 216.006 C 219.374 236.201 235.804 252.63 256 252.63 C 276.194 252.63 292.623 236.201 292.623 216.006 C 292.623 195.811 276.194 179.381 256 179.381 C 235.804 179.381 219.374 195.811 219.374 216.006 Z" style="fill: rgb(55, 126, 240);"/>
  <path d="M 340.333 167.662 C 340.619 167.16 340.614 166.544 340.319 166.047 C 331.788 151.679 319.647 139.644 305.21 131.243 C 290.33 122.584 273.313 118.007 256 118.007 C 226.038 118.007 198.114 131.453 179.39 154.898 C 178.977 155.415 178.923 156.131 179.253 156.704 L 206.841 204.486 C 207.13 204.987 207.664 205.289 208.232 205.289 C 208.304 205.289 208.377 205.284 208.45 205.275 C 209.096 205.187 209.625 204.716 209.788 204.084 C 215.228 183.007 234.231 168.286 256 168.286 C 257.351 168.286 258.746 168.348 260.148 168.468 C 260.194 168.472 260.24 168.474 260.286 168.474 L 338.937 168.474 C 339.515 168.474 340.048 168.164 340.333 167.662 Z" style="fill: rgb(55, 126, 240);"/>
  <path d="M 270.482 262.548 C 270.082 262.032 269.413 261.811 268.781 261.985 C 264.632 263.141 260.332 263.726 256 263.726 C 237.595 263.726 220.631 252.931 212.783 236.226 C 212.764 236.185 212.742 236.145 212.72 236.105 L 173.366 167.943 C 173.079 167.445 172.548 167.14 171.974 167.14 C 171.972 167.14 171.969 167.14 171.966 167.14 C 171.389 167.143 170.858 167.455 170.575 167.957 C 162.349 182.555 158 199.17 158 216.006 C 158 239.626 166.521 262.441 181.994 280.249 C 197.312 297.879 218.402 309.482 241.379 312.92 C 241.459 312.932 241.538 312.937 241.617 312.937 C 242.185 312.937 242.718 312.635 243.008 312.134 L 270.603 264.337 C 270.929 263.771 270.881 263.064 270.482 262.548 Z" style="fill: rgb(55, 126, 240);"/>
  <path d="M 345.758 179.194 L 290.51 179.194 C 289.857 179.194 289.269 179.589 289.022 180.193 C 288.776 180.797 288.919 181.491 289.385 181.947 C 298.629 191.01 303.72 203.105 303.72 216.006 C 303.72 225.773 300.773 235.172 295.197 243.188 C 295.171 243.225 295.147 243.263 295.125 243.302 L 255.702 311.582 C 255.414 312.082 255.416 312.699 255.707 313.197 C 255.996 313.69 256.524 313.992 257.094 313.992 C 257.1 313.992 257.106 313.992 257.112 313.992 C 283.054 313.703 307.399 303.382 325.66 284.932 C 343.935 266.466 354 241.988 354 216.006 C 354 203.657 351.73 191.615 347.254 180.214 C 347.012 179.598 346.419 179.194 345.758 179.194 Z" style="fill: rgb(55, 126, 240);"/>
  <path d="M 119.347 14 L 56.242 14 C 50.505 14 46 17.929 46 22.251 L 46 36 L 130 36 L 130 22.251 C 130 17.929 125.084 14 119.347 14 Z" fill="#4f5565"/>
  <rect x="314" y="18" width="180" height="68" rx="3" ry="3" fill="#ec6630"/>
  <path d="M 357.975 31.002 L 357.975 73 L 351.132 73 L 351.132 54.081 L 332.951 54.081 L 332.951 73 L 326 73 L 326 31.002 L 332.951 31.002 L 332.951 49.408 L 351.132 49.408 L 351.132 31 L 357.975 31 Z M 398.211 31.002 L 398.211 35.673 L 385.677 35.673 L 385.677 73 L 378.782 73 L 378.782 35.675 L 366.243 35.675 L 366.243 31.002 L 398.214 31.002 Z M 438.226 31.002 L 445.181 31.002 L 445.181 73 L 438.226 73 L 438.226 44.105 L 428.82 67.468 L 422.779 67.468 L 413.318 44.105 L 413.318 73 L 406.363 73 L 406.363 31.002 L 413.318 31.002 L 425.798 59.725 Z M 462.677 31.002 L 462.677 67.815 L 482 67.815 L 482 73 L 455.724 73 L 455.724 31.002 Z" fill="#fff"/>
</svg>