<svg viewBox="0 0 256 256" xmlns="http://www.w3.org/2000/svg"><path d="M237.818 101.207h-87.307L130.097 91H18v103.165h219.818z" fill="#4f5565"/><path d="M18 194.164v1.64a8.168 8.168 0 0 0 8.202 8.203h203.596a8.168 8.168 0 0 0 8.202-8.202v-1.64H18zm132.51-92.958h87.308V60.013a8.168 8.168 0 0 0-8.202-8.202H97.652A13.069 13.069 0 0 0 84.53 64.934H28.025C22.557 64.934 18 69.491 18 74.96v15.858h112.279l20.232 10.39z" fill="#f1f3f7"/><circle cx="127.91" cy="144.22" r="59.966" fill="#dededf"/><circle cx="127.91" cy="144.22" r="50.125" fill="#fcfcfd"/><g fill="#377ef0"><path d="M111.93 144.27c0 8.862 7.21 16.071 16.072 16.071s16.071-7.21 16.071-16.07c0-8.863-7.21-16.073-16.07-16.073-8.863 0-16.073 7.21-16.073 16.072z"/><path d="M165.007 123.052a.705.705 0 0 0-.006-.708 43.27 43.27 0 0 0-15.406-15.273A42.973 42.973 0 0 0 128 101.263c-13.148 0-25.401 5.9-33.618 16.188a.704.704 0 0 0-.06.793l12.106 20.968a.705.705 0 0 0 1.294-.177 20.94 20.94 0 0 1 22.098-15.629l.06.003h34.515a.704.704 0 0 0 .612-.357z"/><path d="M134.355 164.691a.704.704 0 0 0-.746-.247 20.91 20.91 0 0 1-5.609.763c-8.076 0-15.52-4.737-18.964-12.067a.789.789 0 0 0-.028-.053l-17.27-29.91a.704.704 0 0 0-.61-.354h-.004a.705.705 0 0 0-.61.36 43.027 43.027 0 0 0-5.518 21.084 42.98 42.98 0 0 0 10.529 28.19c6.722 7.737 15.976 12.83 26.06 14.338a.706.706 0 0 0 .715-.345l12.108-20.975a.706.706 0 0 0-.053-.784z"/><path d="M167.388 128.113h-24.244a.705.705 0 0 0-.494 1.208c4.057 3.977 6.29 9.285 6.29 14.946a20.79 20.79 0 0 1-3.74 11.928.713.713 0 0 0-.031.05l-17.3 29.963a.706.706 0 0 0 .611 1.057h.008c11.384-.127 22.067-4.656 30.08-12.752 8.02-8.103 12.437-18.845 12.437-30.246 0-5.42-.996-10.703-2.96-15.707a.705.705 0 0 0-.657-.447z"/></g><path d="M68.489 54.728h-28.07c-2.552 0-4.556 1.823-4.556 3.828v6.379h37.365v-6.379c0-2.005-2.187-3.828-4.739-3.828z" fill="#4f5565"/><rect x="153.65" y="56.738" width="79" height="30" rx="3" ry="3" fill="#ec6630"/><path d="M172.85 62.476v18.525h-3.018v-8.345h-8.018v8.345h-3.066V62.476h3.066v8.119h8.018v-8.12h3.018zm17.745 0v2.06h-5.528v16.465h-3.041V64.537h-5.53v-2.061h14.1zm17.647 0h3.067v18.525h-3.067V68.256l-4.148 10.305h-2.664l-4.173-10.305v12.745h-3.067V62.476h3.067l5.504 12.67zm10.783 0v16.238h8.522v2.287h-11.588V62.476z" fill="#fff"/></svg>